<svg xmlns="http://www.w3.org/2000/svg" width="120" height="120" viewBox="0 0 120 120"><title>fish</title><g fill="none" fill-rule="evenodd"><g fill="#0F346C"><path d="M59.956 2.914c-14.742 0-29.484 5.612-40.708 16.835-22.446 22.447-22.446 58.97 0 81.415 22.447 22.448 58.97 22.447 81.417 0 22.446-22.446 22.446-58.97 0-81.416C89.44 8.526 74.7 2.914 59.955 2.914M59.958 120c-15.255 0-30.51-5.806-42.123-17.42-23.227-23.225-23.227-61.018 0-84.245 23.226-23.224 61.018-23.227 84.245 0 23.226 23.227 23.226 61.02 0 84.246C90.465 114.195 75.21 120 59.956 120"></path><path d="M37.94 52.084c-.407 0-.79-.25-.938-.653-.142-.38-3.452-9.39-2.823-15.224.15-1.405.796-2.53 1.918-3.346 3.35-2.434 9.972-1.085 10.253-1.026.54.113.888.642.775 1.183-.114.54-.654.884-1.183.775-1.673-.348-6.486-.902-8.67.687-.653.475-1.015 1.11-1.104 1.94-.58 5.37 2.675 14.227 2.708 14.316.193.517-.072 1.093-.59 1.285-.114.043-.232.064-.347.064M66.477 57.792c-.1 0-.203-.016-.304-.048l-5.3-1.692c-.527-.168-.817-.73-.65-1.257.167-.525.733-.817 1.257-.65l5.3 1.694c.527.167.817.73.65 1.256-.136.425-.53.696-.953.696"></path><path d="M47.344 70.436c-5.116 0-8.258-4.393-9.302-7.11-.207-.67-4.417-14.97 4.915-28.117.56-.788 1.152-1.556 1.762-2.284 8.913-10.643 20.056-11.36 20.525-11.387.286-.017 7.318-.44 13.36 1.925 1.33.456 2.44 2.75-.07 11.002-.162.528-.714.83-1.248.666-.528-.16-.826-.72-.666-1.248 1.172-3.855 1.75-7.95 1.212-8.594-5.59-2.168-12.4-1.758-12.468-1.753-.117.006-10.78.724-19.112 10.674-.576.688-1.136 1.413-1.664 2.157-8.77 12.354-4.698 26.172-4.656 26.31.097.237 2.972 7.402 9.7 5.408 7.57-2.24 16.783-6.375 16.876-6.417.503-.228 1.095-.002 1.322.5.227.505.002 1.096-.502 1.324-.092.043-9.428 4.232-17.13 6.51-1.01.3-1.962.434-2.854.434"></path><path d="M48.233 70.42c-.16 0-.322-.038-.473-.12-.288-.155-.566-.33-.825-.523-1.12-.822-1.96-1.95-2.427-3.262-.623-1.753-.563-3.61.17-5.23.747-1.644 2.12-2.892 3.867-3.515l.95-.313c.965-.316 2.053-.53 3.206-.756 4.03-.79 9.55-1.872 16.206-8.637 3.81-4.443 6.431-9.26 7.74-14.272.14-.533.684-.85 1.22-.714.534.14.855.686.716 1.22-1.387 5.308-4.147 10.395-8.203 15.12-7.138 7.256-13.008 8.407-17.293 9.248-1.14.223-2.122.416-2.966.693l-.926.305c-1.21.43-2.174 1.303-2.693 2.448-.517 1.146-.556 2.47-.106 3.733.333.934.93 1.738 1.727 2.324.188.14.385.263.59.373.486.263.667.87.404 1.356-.18.335-.525.524-.88.524M67.448 29.1c.098.786-.46 1.502-1.245 1.6-.786.1-1.503-.458-1.6-1.244-.1-.786.458-1.502 1.244-1.6.786-.1 1.502.458 1.6 1.244"></path><path d="M67.092 41.867c-1.7 0-3.46-.507-5.015-1.483-2.302-1.447-3.884-3.764-4.232-6.2-.078-.546.303-1.052.85-1.13.542-.08 1.05.302 1.13.85.265 1.86 1.505 3.648 3.316 4.786 1.855 1.164 4.047 1.49 5.86.87.524-.178 1.092.1 1.27.625.18.522-.1 1.09-.622 1.27-.812.276-1.676.412-2.556.412M35.97 41.536c-.496 0-.927-.37-.99-.875-.07-.548.32-1.048.868-1.116l5.05-.633c.55-.07 1.047.322 1.115.87.068.548-.32 1.048-.868 1.116l-5.05.632c-.04.006-.083.008-.124.008M67.786 59.178c-.416 0-.804-.26-.946-.676-.18-.523.1-1.092.622-1.27l4.85-1.662c.523-.18 1.09.1 1.27.622.18.523-.1 1.09-.62 1.27l-4.852 1.662c-.107.036-.217.054-.324.054M67.88 62.24c-.498 0-.93-.37-.992-.877-.07-.548.32-1.048.87-1.115l5.266-.655c.556-.07 1.046.32 1.115.87.067.547-.322 1.047-.87 1.114l-5.267.655c-.042.005-.083.008-.124.008M84.107 99.673c-4.104 0-6.223-2.063-8.092-3.884-1.828-1.78-3.407-3.317-6.698-3.317-3.288 0-4.865 1.536-6.69 3.316-1.87 1.82-3.988 3.883-8.09 3.883s-6.22-2.063-8.09-3.884c-1.826-1.78-3.404-3.317-6.694-3.317-.552 0-1-.448-1-1 0-.553.448-1 1-1 4.103 0 6.22 2.062 8.09 3.884 1.826 1.78 3.405 3.316 6.695 3.316 3.288 0 4.865-1.537 6.69-3.316 1.87-1.82 3.987-3.884 8.09-3.884s6.223 2.063 8.092 3.884c1.828 1.78 3.406 3.316 6.697 3.316 3.29 0 4.87-1.537 6.697-3.316 1.87-1.82 3.99-3.884 8.093-3.884.553 0 1 .447 1 1 0 .552-.447 1-1 1-3.29 0-4.87 1.537-6.698 3.316-1.87 1.82-3.99 3.883-8.093 3.883M86.782 86.205c-4.073 0-6.176-2.065-8.03-3.887-1.81-1.778-3.372-3.313-6.628-3.313-3.254 0-4.816 1.535-6.624 3.313-1.854 1.822-3.954 3.887-8.026 3.887-4.072 0-6.172-2.065-8.027-3.887-1.81-1.778-3.37-3.313-6.626-3.313-3.252 0-4.813 1.535-6.622 3.312-1.854 1.823-3.954 3.888-8.025 3.888-4.073 0-6.174-2.065-8.028-3.887-1.808-1.778-3.37-3.313-6.625-3.313-.552 0-1-.448-1-1 0-.553.448-1 1-1 4.073 0 6.174 2.064 8.028 3.887 1.808 1.777 3.37 3.313 6.625 3.313 3.253 0 4.814-1.535 6.623-3.313 1.853-1.823 3.954-3.887 8.025-3.887 4.074 0 6.175 2.064 8.03 3.887 1.808 1.778 3.37 3.313 6.624 3.313 3.253 0 4.815-1.535 6.623-3.313 1.854-1.823 3.955-3.887 8.027-3.887 4.073 0 6.176 2.064 8.03 3.887 1.81 1.777 3.372 3.313 6.628 3.313 3.256 0 4.82-1.536 6.63-3.313 1.853-1.823 3.956-3.887 8.03-3.887.552 0 1 .447 1 1 0 .552-.448 1-1 1-3.257 0-4.82 1.535-6.63 3.313-1.854 1.822-3.956 3.887-8.03 3.887"></path></g><path d="M69.237 63.178c-.02.068-.048.135-.084.2.036-.068.063-.135.084-.2m-.04-.68c.224.207 1.14.923 4.516 2.603 2.472 1.23 3.003.803 3.006.8.35-.347-.035-2.19-.778-3.724-.075-.166-1.672-3.684-1.085-6.526.343-1.66.11-2.297-.084-2.41-.895-.537-4.328 1.427-7.054 3.63l.737 4.817.508.48c.1.095.178.208.23.33m7.173 5.483c-1.17 0-2.5-.568-3.545-1.088-4.366-2.172-5.19-2.996-5.415-3.445l-.573-.542c-.162-.154-.27-.356-.302-.576l-.877-5.72c-.053-.344.078-.69.345-.916 1.635-1.375 7.174-5.737 9.8-4.173 1.737 1.036 1.195 3.67 1.016 4.534-.454 2.195.92 5.24.936 5.27.482.996 1.96 4.428.374 5.997-.483.477-1.096.66-1.758.66" fill="#303567"></path></g></svg>