<svg xmlns="http://www.w3.org/2000/svg" xmlns:xlink="http://www.w3.org/1999/xlink" width="120" height="120" viewBox="0 0 120 120"><title>pig</title><defs><path id="a" d="M119.634.916H.548V120h119.086z"></path></defs><g fill="none" fill-rule="evenodd"><g transform="translate(0 -.916)"><mask id="b" fill="#fff"><use xlink:href="#a"></use></mask><path d="M60.09 2.915c-14.743 0-29.483 5.61-40.708 16.834-22.446 22.446-22.446 58.97 0 81.416 22.447 22.446 58.97 22.446 81.417 0 22.445-22.446 22.445-58.97 0-81.417C89.576 8.527 74.83 2.914 60.09 2.914m0 117.085c-15.254 0-30.51-5.807-42.122-17.42-23.227-23.226-23.227-61.02 0-84.245 23.227-23.226 61.02-23.226 84.245 0 23.227 23.226 23.227 61.02 0 84.245C90.6 114.193 75.346 120 60.09 120" fill="#0F346C" mask="url(#b)"></path></g><path d="M26.322 49.894c-.55 0-1.097.21-1.51.632-.82.832-.807 2.176.025 2.995.4.394.925.61 1.484.61h.014c.57-.006 1.1-.23 1.498-.633.396-.404.613-.938.608-1.503-.005-.566-.23-1.096-.633-1.493-.412-.404-.948-.606-1.485-.606m0 6.235c-1.088 0-2.112-.42-2.888-1.183-1.62-1.593-1.64-4.205-.05-5.824 1.595-1.62 4.21-1.64 5.826-.048.784.772 1.22 1.802 1.23 2.902.01 1.1-.41 2.138-1.182 2.922-.772.783-1.802 1.22-2.902 1.23h-.035" fill="#0F346C"></path><path d="M29.263 60.436c-3.54 0-5.503-2.444-5.887-2.974-1.092-1.108-1.7-2.572-1.714-4.132-.012-1.592.595-3.094 1.71-4.23.387-.393 1.022-.398 1.415-.01.394.387.4 1.02.012 1.413-.742.755-1.146 1.752-1.138 2.81.01 1.058.43 2.05 1.184 2.79.05.05.095.104.133.162.076.115 2.022 2.913 5.845 1.972.537-.128 1.08.197 1.21.733.13.536-.197 1.078-.733 1.21-.73.18-1.41.256-2.04.256" fill="#0F346C"></path><path d="M23.662 54.685c-.104 0-.21-.017-.313-.05-5.1-1.683-5.276-6.425-5.28-6.627-.014-.552.423-1.01.975-1.024.594-.02 1.008.42 1.024.97.004.148.172 3.548 3.905 4.782.525.172.81.74.636 1.263-.137.42-.528.685-.948.685M46.467 62.68c-.234 0-.448-.013-.637-.04-1.835-.272-5.185-2.548-5.56-2.807-.024-.01-1.72-1.05-5.32-4.336-3.757-3.43-2.955-7.582-2.817-8.17l2.424-16.45c.08-.545.59-.928 1.135-.843.546.08.924.59.843 1.135l-2.43 16.493c-.006.038-.013.075-.023.11-.034.136-.833 3.464 2.217 6.247 3.42 3.12 5.04 4.125 5.056 4.135 1.32.906 3.727 2.352 4.765 2.505 1.062.158 4.05-.505 5.688-.958.033-.008 1.874-.503 6.05-2.505 3.722-1.785 3.918-5.202 3.924-5.347 0-.033.005-.073.01-.107l2.34-15.878c.08-.545.59-.927 1.135-.843.547.08.925.59.844 1.135L63.78 51.99c-.04.605-.467 4.81-5.056 7.01-4.394 2.107-6.318 2.614-6.4 2.634-.41.114-3.84 1.046-5.855 1.046M59.825 29.427c-.13 0-.26-.025-.386-.078-.65-.273-1.414-.49-2.267-.646l-11.937-1.762c-.94-.11-1.82-.12-2.588-.023-.553.07-1.05-.32-1.117-.868-.068-.548.32-1.048.868-1.117.928-.117 1.97-.11 3.102.024l12 1.77c1.027.188 1.93.447 2.71.774.51.213.75.8.538 1.308-.16.384-.532.615-.923.615" fill="#0F346C"></path><path d="M46.998 48.218c-.103.695-.748 1.175-1.443 1.073-.696-.1-1.175-.748-1.074-1.443.104-.694.75-1.175 1.446-1.072.694.102 1.175.748 1.072 1.443M51.747 48.918c-.103.695-.75 1.175-1.443 1.073-.696-.102-1.176-.748-1.074-1.443.103-.695.75-1.175 1.444-1.073.695.103 1.176.75 1.073 1.444M42.88 37.32c-.085.57-.617.967-1.19.883-.572-.085-.968-.617-.883-1.19.084-.572.616-.967 1.19-.883.572.084.968.617.883 1.19M58.497 39.62c-.085.574-.617.97-1.19.885-.572-.085-.967-.617-.883-1.19.084-.572.617-.968 1.19-.883.57.084.967.616.883 1.188" fill="#0F346C"></path><path d="M42.02 47.404h.01-.01zm6.086-4.266c-1.1 0-2.17.35-3.07 1.02-1.106.823-1.827 2.027-2.028 3.392-.2 1.365.14 2.726.964 3.833.822 1.107 2.027 1.828 3.392 2.03 2.818.418 5.446-1.54 5.862-4.357.2-1.365-.142-2.726-.964-3.833-.822-1.108-2.027-1.828-3.39-2.03-.257-.037-.512-.055-.766-.055zm.016 12.33c-.347 0-.697-.025-1.05-.077-1.893-.278-3.564-1.278-4.705-2.814-1.142-1.536-1.617-3.424-1.337-5.318.278-1.893 1.278-3.564 2.814-4.706 1.536-1.14 3.428-1.616 5.318-1.336 1.893.278 3.564 1.278 4.706 2.814 1.14 1.536 1.616 3.424 1.337 5.317-.524 3.556-3.59 6.12-7.083 6.12zM40.74 22.127h.01-.01zm-7.98 5.435c.034.036.09.085.177.14l7.965 4.944c.088.055.157.084.205.098.014-.047.028-.12.032-.224l.3-9.37c.002-.104-.008-.178-.02-.226-.047.012-.118.036-.208.084l-8.266 4.426c-.09.05-.15.094-.186.128zm8.414 7.193c-.433 0-.888-.138-1.327-.41L31.883 29.4c-.757-.47-1.178-1.163-1.155-1.903.025-.74.49-1.406 1.275-1.827l8.264-4.424c.785-.422 1.597-.44 2.226-.048.63.39.974 1.125.944 2.015l-.3 9.37c-.028.892-.42 1.603-1.07 1.952-.276.148-.578.22-.893.22zM68.87 33.544h.01-.01zm-9.513 2.493c.05 0 .123-.007.223-.034l9.053-2.437c.1-.027.168-.058.21-.082-.025-.043-.068-.104-.14-.176l-6.638-6.622c-.073-.073-.133-.117-.176-.14-.026.04-.056.11-.083.21l-2.416 9.058c-.026.1-.033.174-.033.223zm.003 2c-.566 0-1.07-.193-1.44-.56-.523-.525-.692-1.318-.46-2.18l2.415-9.057c.228-.86.77-1.465 1.485-1.657.717-.193 1.487.057 2.117.687l6.637 6.622c.63.63.884 1.4.693 2.116-.19.715-.794 1.258-1.655 1.49L60.1 37.935c-.254.068-.502.1-.74.1zM67.475 88.62h-5.008c-.553 0-1-.448-1-1 0-.553.447-1 1-1h5.008c.553 0 1 .447 1 1 0 .552-.447 1-1 1" fill="#0F346C"></path><path d="M67.37 92.355h-4.28c-.46 0-.863-.314-.972-.763l-2.288-9.38c-.13-.537.198-1.078.734-1.21.54-.128 1.078.2 1.21.737l2.1 8.615h2.598c.425-4.046 2.14-20.606 2.14-24.852 0-3.67-4.78-8.61-6.622-10.204-.418-.362-.463-.994-.1-1.412.36-.418.99-.462 1.41-.102.298.26 7.313 6.39 7.313 11.717 0 4.928-2.156 25.102-2.248 25.958-.055.51-.483.895-.994.895M35.476 88.62h-5.48c-.552 0-1-.448-1-1 0-.553.448-1 1-1h5.48c.553 0 1 .447 1 1 0 .552-.447 1-1 1" fill="#0F346C"></path><path d="M48.97 87.62c-5.52 0-10.515-2.028-12.724-5.165-.318-.45-.21-1.075.242-1.394.454-.317 1.076-.21 1.393.244 1.82 2.58 6.277 4.315 11.09 4.315 4.815 0 9.272-1.735 11.09-4.316.318-.453.94-.56 1.394-.243.452.32.56.944.242 1.395-2.21 3.137-7.204 5.164-12.725 5.164" fill="#0F346C"></path><path d="M34.853 92.355h-4.28c-.512 0-.94-.385-.995-.894-.092-.855-2.247-21.03-2.247-25.957 0-5.327 7.016-11.458 7.315-11.717.418-.362 1.048-.315 1.41.102.36.417.317 1.05-.1 1.41-1.843 1.597-6.624 6.542-6.624 10.205 0 4.246 1.715 20.806 2.14 24.852h2.598l2.102-8.617c.13-.536.673-.863 1.21-.735.536.132.865.673.734 1.21l-2.29 9.38c-.11.448-.51.762-.97.762" fill="#0F346C"></path><path d="M29.76 85.022c-1.922 0-3.708-1.28-5.04-3.616-1.25-2.188-1.98-5.097-2.058-8.192-.168-6.716 2.733-12.055 6.604-12.152.603-.013 1.012.423 1.025.974.015.552-.422 1.01-.973 1.025-2.37.06-4.805 4.135-4.655 10.105.07 2.77.706 5.344 1.793 7.25.963 1.685 2.2 2.64 3.364 2.606h.024c.54 0 .986.432 1 .976.014.55-.423 1.01-.975 1.024l-.11.002M68.183 85.022c-.036 0-.072 0-.11-.002-.55-.014-.988-.473-.974-1.024.013-.552.424-1 1.024-.975 1.14.02 2.4-.92 3.363-2.605 1.087-1.906 1.723-4.48 1.793-7.25.15-5.97-2.285-10.044-4.655-10.104-.55-.013-.988-.472-.974-1.023.014-.553.484-1.015 1.026-.975 3.87.097 6.772 5.436 6.604 12.152-.078 3.095-.81 6.004-2.056 8.192-1.334 2.336-3.12 3.616-5.04 3.616M102.797 95.202c-.166 0-.335-.042-.492-.13-1.747-.99-4.854-.96-6.52-.948-.51.004-.91.006-1.144-.015-.55-.05-.957-.533-.91-1.084.047-.55.51-.97 1.084-.91.197.017.528.012.956.008 1.852-.016 5.306-.048 7.522 1.208.48.272.65.883.376 1.363-.184.324-.522.507-.87.507" fill="#0F346C"></path><path d="M21.393 96.043c-.48 0-.904-.346-.985-.835-.09-.542.273-1.056.814-1.15.11-.025.274-.09.514-.18 12.052-4.44 36.773-4.112 55.575-3.035.683-.778 2.34-3.112 1.283-6.512-.257-.826-.576-1.855.38-2.232 1.047-.413 1.18-.178 4.126 5.913.38-3.34 1.91-6.602 5.323-8.363.51-.263.977-.12 1.247.104.656.54.446 1.257-.062 2.985-.443 1.51-1.09 3.712-1.157 5.704.574-2.485 1.665-5.343 4.462-5.73.457-.06.903.2 1.07.633.394 1.025.17 2.386-.09 3.96-.452 2.75-.64 4.59.832 5.126.52.187.787.76.598 1.28-.19.52-.76.788-1.282.6-3.14-1.144-2.55-4.72-2.12-7.33.1-.617.21-1.277.254-1.833-1.313 1.077-1.804 3.75-2.122 5.475-.294 1.604-.47 2.57-1.462 2.67-.967.1-1.39-.936-1.636-1.553-1.11-2.77-.15-6.515.572-9.008-3.168 3.13-2.516 8.325-2.324 9.472.082.49-.213 1.017-.687 1.168-.91.29-.907.286-3.046-4.138l-.643-1.325c-.483 2.896-2.338 4.603-2.45 4.7-.197.18-.452.273-.725.256-18.664-1.09-43.4-1.47-55.224 2.89-.4.146-.642.235-.87.273-.056.01-.11.013-.165.013" fill="#0F346C"></path></g></svg>