<svg 
  height="18" 
  width="18" 
  viewBox="0 0 19 19" 
  xmlns="http://www.w3.org/2000/svg"
>
  <title>Vegetarian</title>
  <g fill="#1EB392" fill-rule="nonzero">
    <path 
      d="M17.088 12.926c.293-2.712-.067-5.256-2.627-6.821-1.01-.617-2.285-.86-3.472-1.114C9.601 4.695 2.575 2.825 1.187.912 1.062.742.909.592.625.268.433 1.254.214 2.062.128 2.89c-.412 3.945.29 7.66 2.966 10.69 3.435 3.89 7.648 5.242 12.587 2.609.66-.351.983-.232 1.294.354.165.314.988 1.458 1.43 1.232.443-.222.223-.683.101-.87-.622-.924-1.806-1.818-2.574-2.617-1.697-1.763-3.857-2.859-6.029-3.92-.558-.275-.747-.336-1.287-.65 0 0-1.822-.854-1.395-1.333.116-.192 4.604 1.598 5.953 2.23 1.342.631 2.571 1.507 3.914 2.312z"
      transform="matrix(-1 0 0 1 18.8 0)"
    />
  </g>
</svg>
